<?xml version="1.0" encoding="utf-8"?>
<!-- Generator: Adobe Illustrator 28.0.0, SVG Export Plug-In . SVG Version: 6.00 Build 0)  -->
<svg version="1.1" id="Layer_1" xmlns="http://www.w3.org/2000/svg" xmlns:xlink="http://www.w3.org/1999/xlink" x="0px" y="0px"
	 viewBox="0 0 500 500" style="enable-background:new 0 0 500 500;" xml:space="preserve">
<style type="text/css">
	.st0{fill:#FF0000;}
	.st1{fill-rule:evenodd;clip-rule:evenodd;fill:#FFFFFF;}
</style>
<g>
	<path id="XMLID_00000121255077596235648990000016165199217971411592_" class="st0" d="M0.5,399.7c0,43.73,0,68.04,15.88,83.92
		c15.88,15.88,40.19,15.88,83.92,15.88h299.4c43.73,0,68.04,0,83.92-15.88c15.88-15.88,15.88-40.19,15.88-83.92V100.3
		c0-43.73,0-68.04-15.88-83.92C467.74,0.5,443.43,0.5,399.7,0.5H100.3c-43.73,0-68.04,0-83.92,15.88C0.5,32.26,0.5,56.57,0.5,100.3
		V399.7z"/>
	<path class="st1" d="M125.82,204.62l-42.65-42.64c-9.99-9.99-9.99-26.18,0-36.17l42.65-42.65c9.99-9.99,26.18-9.99,36.16,0
		l42.65,42.65c9.99,9.99,9.99,26.18,0,36.16l-42.65,42.65C152,214.61,135.81,214.61,125.82,204.62"/>
	<path class="st1" d="M231.92,310.72l-42.65-42.64c-9.99-9.99-9.99-26.18,0-36.17l42.65-42.65c9.99-9.99,26.18-9.99,36.16,0
		l42.65,42.64c9.99,9.99,9.99,26.18,0,36.17l-42.65,42.65C258.09,320.7,241.9,320.7,231.92,310.72"/>
	<path class="st1" d="M338.01,416.82l-42.65-42.64c-9.99-9.99-9.99-26.18,0-36.17l42.65-42.65c9.99-9.99,26.18-9.99,36.16,0
		L416.82,338c9.99,9.99,9.99,26.18,0,36.17l-42.65,42.65C364.19,426.8,348,426.8,338.01,416.82"/>
	<path class="st1" d="M204.59,374.08l-42.65,42.65c-9.99,9.99-26.18,9.99-36.16,0l-42.65-42.65c-9.98-9.99-9.98-26.18,0-36.16
		l42.65-42.65c9.99-9.99,26.18-9.99,36.17,0l42.64,42.65C214.57,347.9,214.57,364.09,204.59,374.08"/>
	<path class="st1" d="M416.78,161.88l-42.65,42.65c-9.99,9.99-26.18,9.99-36.16,0l-42.65-42.65c-9.99-9.99-9.98-26.18,0-36.16
		l42.64-42.65c9.99-9.99,26.18-9.99,36.17,0l42.64,42.65C426.77,135.71,426.77,151.9,416.78,161.88"/>
</g>
</svg>
